<svg version="1.1" id="Layer_1" xmlns="http://www.w3.org/2000/svg" xmlns:xlink="http://www.w3.org/1999/xlink" x="0px" y="0px"
	 width="100%" viewBox="0 0 364 437" enable-background="new 0 0 364 437" xml:space="preserve">
<path fill="#000000" opacity="1.000000" stroke="none" 
	d="
M1.000000,383.000000 
	C1.000000,277.311890 1.000000,171.623810 1.372102,65.470505 
	C12.344361,71.018387 22.917910,77.079285 33.566795,83.004799 
	C35.735516,84.211571 38.636032,86.226799 40.432453,85.615631 
	C48.711899,82.798813 56.720062,79.184601 65.150665,76.007111 
	C73.991829,81.143333 82.507812,86.128769 90.999138,91.494431 
	C85.158463,107.064362 82.264496,122.949188 81.193100,139.037598 
	C80.504364,149.379654 80.904724,159.939346 82.190956,170.229752 
	C83.678406,182.130005 85.877083,194.071838 89.198975,205.582336 
	C94.421135,223.677338 102.741333,240.432617 115.020203,255.377930 
	C116.742065,257.466217 118.321198,259.249298 120.037170,261.343719 
	C128.721558,269.203461 136.867294,277.286194 145.953384,284.118347 
	C152.349106,288.927521 160.023209,292.036652 167.058502,296.276917 
	C160.113907,312.505493 153.310349,328.394196 146.337997,344.208435 
	C140.625641,357.164856 134.712326,370.032684 128.426834,382.958801 
	C85.643715,382.985229 43.321857,382.992615 1.000000,383.000000 
z"/>
<path fill="#E74B3C" opacity="1.000000" stroke="none" 
	d="
M167.126495,295.904846 
	C160.023209,292.036652 152.349106,288.927521 145.953384,284.118347 
	C136.867294,277.286194 128.721558,269.203461 120.346916,261.195190 
	C126.998444,252.890320 133.477081,245.045273 140.151459,237.232391 
	C140.347198,237.264557 140.740311,237.318497 140.884033,237.615875 
	C156.827026,255.112579 175.891235,266.204407 199.495514,267.969971 
	C229.114792,270.185486 253.085983,258.413086 272.337494,236.594849 
	C290.950409,215.500351 300.322693,190.373337 302.308533,162.516647 
	C304.933502,125.693550 295.560272,92.517715 270.613678,64.657623 
	C242.391541,33.139500 199.336060,25.846920 164.066986,46.488014 
	C143.816544,58.339516 129.918869,75.855270 120.269165,97.101288 
	C111.575958,92.001312 103.212303,86.988152 94.920303,81.611389 
	C109.608292,48.954826 131.529083,23.550484 163.989151,8.000000 
	C109.659431,8.000000 55.329716,8.000000 1.000000,8.000000 
	C1.000000,5.671113 1.000000,3.342226 1.000000,1.006669 
	C75.020897,1.000000 149.041794,1.000000 223.605469,1.369538 
	C224.646408,2.124510 225.098145,2.756260 225.649338,2.860082 
	C254.260651,8.249290 276.920135,23.611761 294.955658,45.725281 
	C318.342010,74.399521 329.350311,108.045570 330.750519,144.672256 
	C331.240662,157.494171 330.008942,170.592026 327.830322,183.265930 
	C321.620575,219.390167 306.034119,250.684525 277.685028,274.853516 
	C262.728638,287.604584 245.855316,296.380280 226.461624,300.157349 
	C223.886765,300.658813 221.451172,301.875366 218.488831,302.814301 
	C206.019760,301.936218 194.012955,301.004578 181.767212,299.789825 
	C176.727692,298.306091 171.927094,297.105469 167.126495,295.904846 
z"/>
<path fill="#221F1F" opacity="1.000000" stroke="none" 
	d="
M1.000000,383.250000 
	C43.321857,382.992615 85.643715,382.985229 128.432404,383.334595 
	C125.301773,392.072937 121.727959,400.464722 118.098015,408.832184 
	C115.918304,413.856720 116.684959,416.352264 121.253746,418.646088 
	C126.131516,421.095032 128.790726,420.303284 131.293854,415.219391 
	C133.417297,410.906708 135.109604,406.383850 137.149139,402.027222 
	C140.291687,395.314362 143.567993,388.664093 147.276001,381.991150 
	C178.470459,382.308746 209.176453,382.622467 239.969925,383.336395 
	C240.604538,386.647369 241.196716,389.550568 241.688721,392.470673 
	C242.517563,397.390076 245.823685,398.543579 250.113510,397.900330 
	C254.387329,397.259460 256.541290,394.783386 256.006439,390.284882 
	C255.779099,388.372559 255.684891,386.444366 255.496460,384.104706 
	C256.867706,384.104706 257.988281,384.104706 259.401611,384.379639 
	C265.954773,385.103180 272.230927,385.398315 278.471680,386.038361 
	C286.670685,386.879333 294.841797,387.991882 303.332916,389.150574 
	C304.439056,390.746368 305.345184,392.130463 306.017090,393.620178 
	C309.368286,401.050171 312.663757,408.505310 315.966919,415.956879 
	C317.725708,419.924438 320.560486,420.856750 324.504852,419.203613 
	C330.122528,416.849243 331.113739,414.825653 328.878448,409.165436 
	C326.624207,403.457336 324.198944,397.816833 322.276123,392.100098 
	C337.559906,394.405182 352.129944,397.624786 365.000000,406.000000 
	C365.000000,408.700012 365.000000,411.400024 364.641418,414.571838 
	C354.338135,419.179382 344.393463,423.315094 335.532867,427.000000 
	C344.434235,427.000000 354.717133,427.000000 365.000000,427.000000 
	C365.000000,430.662231 365.000000,434.324463 365.000000,437.981781 
	C243.666672,437.976868 122.333328,437.976868 1.000000,437.976868 
	C1.000000,434.624481 1.000000,431.295197 1.468657,427.482971 
	C11.875592,427.000000 21.813869,427.000000 30.636124,427.000000 
	C21.263048,423.204742 11.131521,419.102386 0.999997,415.000000 
	C1.000000,412.299988 1.000000,409.599976 1.352673,406.427795 
	C6.063861,403.612915 10.201800,400.631256 14.818825,399.037262 
	C35.596657,391.863831 57.282200,389.229095 79.017303,387.010742 
	C87.928230,386.101257 96.852661,385.324066 105.770950,384.486694 
	C105.767479,384.324463 105.764008,384.162231 105.760536,384.000000 
	C70.840363,384.000000 35.920181,384.000000 1.000000,384.000000 
	C1.000000,384.000000 1.000000,383.500000 1.000000,383.250000 
z"/>
<path fill="#C0392B" opacity="1.000000" stroke="none" 
	d="
M218.951080,302.760773 
	C221.451172,301.875366 223.886765,300.658813 226.461624,300.157349 
	C245.855316,296.380280 262.728638,287.604584 277.685028,274.853516 
	C306.034119,250.684525 321.620575,219.390167 327.830322,183.265930 
	C330.008942,170.592026 331.240662,157.494171 330.750519,144.672256 
	C329.350311,108.045570 318.342010,74.399521 294.955658,45.725281 
	C276.920135,23.611761 254.260651,8.249290 225.649338,2.860082 
	C225.098145,2.756260 224.646408,2.124510 224.074127,1.369538 
	C271.000000,1.000000 318.000000,1.000000 365.000000,1.000000 
	C365.000000,3.017638 365.000000,5.010914 364.531342,7.501949 
	C336.683502,7.999709 309.304352,7.999709 281.562744,7.999709 
	C282.108215,8.652459 282.246857,8.974550 282.481293,9.076683 
	C303.186981,18.097122 320.039795,32.068073 333.379181,50.063591 
	C348.028931,69.826797 357.527924,91.999252 362.086334,116.252365 
	C362.588318,118.923103 364.006683,121.421608 365.000000,124.000000 
	C365.000000,142.020889 365.000000,160.041794 364.593079,178.416595 
	C363.798737,179.438629 363.160431,180.071472 363.060852,180.780045 
	C360.835388,196.618271 356.167816,211.746536 349.340179,226.153580 
	C340.302643,245.223724 328.382538,262.150024 311.897339,275.695282 
	C301.928162,283.886597 291.385529,290.918030 278.810394,294.902405 
	C276.295593,290.917419 273.402405,288.652832 268.809967,290.666473 
	C264.565338,292.527588 263.817657,295.901306 264.570160,300.011353 
	C257.112762,301.025360 250.067108,302.046051 242.730881,302.766602 
	C237.622223,302.679291 232.804138,302.892120 227.536621,303.063782 
	C224.375168,302.935333 221.663116,302.848053 218.951080,302.760773 
z"/>
<path fill="#000000" opacity="1.000000" stroke="none" 
	d="
M279.100494,295.104248 
	C291.385529,290.918030 301.928162,283.886597 311.897339,275.695282 
	C328.382538,262.150024 340.302643,245.223724 349.340179,226.153580 
	C356.167816,211.746536 360.835388,196.618271 363.060852,180.780045 
	C363.160431,180.071472 363.798737,179.438629 364.593079,178.885254 
	C365.000000,246.687561 365.000000,314.375122 364.531342,382.531342 
	C348.602142,383.000000 333.141602,383.000000 317.672943,383.000000 
	C304.720886,353.485931 291.910706,324.295105 279.100494,295.104248 
z"/>
<path fill="#000000" opacity="1.000000" stroke="none" 
	d="
M1.000000,8.468657 
	C55.329716,8.000000 109.659431,8.000000 163.989151,8.000000 
	C131.529083,23.550484 109.608292,48.954826 94.612701,81.469002 
	C86.135834,77.118294 78.038231,72.546356 69.956284,67.561600 
	C68.649750,59.849968 66.553963,52.580139 66.278969,45.242073 
	C66.097420,40.397453 63.669735,38.676006 60.335342,37.092930 
	C57.692223,35.838058 54.512943,35.550293 52.101894,34.005604 
	C48.170742,31.487030 44.671818,28.293814 40.739479,25.186935 
	C40.073734,26.996376 39.799076,27.742870 39.502266,28.549576 
	C37.944828,21.102716 30.738144,21.558073 26.025238,17.092358 
	C26.823906,22.255030 27.370913,26.056843 28.007471,29.843603 
	C28.969028,35.563713 29.993036,41.273323 30.631145,47.022820 
	C29.161303,48.988056 28.050814,50.917870 26.561882,52.921017 
	C22.354065,54.565739 18.577726,56.286552 14.681417,57.669323 
	C10.176078,59.268234 5.565109,60.569504 1.000000,62.000000 
	C1.000000,44.312439 1.000000,26.624876 1.000000,8.468657 
z"/>
<path fill="#6C3C1C" opacity="1.000000" stroke="none" 
	d="
M278.810394,294.902405 
	C291.910706,324.295105 304.720886,353.485931 317.672943,383.000000 
	C333.141602,383.000000 348.602142,383.000000 364.531342,383.000000 
	C365.000000,383.000000 365.000000,383.500000 364.531342,383.750000 
	C348.990662,384.000000 333.918671,384.000000 318.266022,384.000000 
	C319.629089,387.099548 320.738861,389.623108 321.848633,392.146698 
	C324.198944,397.816833 326.624207,403.457336 328.878448,409.165436 
	C331.113739,414.825653 330.122528,416.849243 324.504852,419.203613 
	C320.560486,420.856750 317.725708,419.924438 315.966919,415.956879 
	C312.663757,408.505310 309.368286,401.050171 306.017090,393.620178 
	C305.345184,392.130463 304.439056,390.746368 303.317688,388.750000 
	C302.804138,385.227966 301.453278,383.904419 298.268585,383.945526 
	C285.216827,384.113953 272.162354,384.070312 259.108856,384.104706 
	C257.988281,384.104706 256.867706,384.104706 255.496460,384.104706 
	C255.684891,386.444366 255.779099,388.372559 256.006439,390.284882 
	C256.541290,394.783386 254.387329,397.259460 250.113510,397.900330 
	C245.823685,398.543579 242.517563,397.390076 241.688721,392.470673 
	C241.196716,389.550568 240.604538,386.647369 240.005859,382.926941 
	C239.453079,379.039307 238.909760,375.967529 238.458054,372.882324 
	C236.622604,360.346497 234.859207,347.799988 232.984161,335.270142 
	C231.378372,324.539368 229.656555,313.825989 227.986053,303.104919 
	C232.804138,302.892120 237.622223,302.679291 242.887787,303.129089 
	C245.557404,318.410736 247.796906,333.027191 249.996231,347.649658 
	C251.750961,359.316162 253.456726,370.989990 255.202606,382.784729 
	C270.523926,382.784729 285.282928,382.784729 300.366364,382.784729 
	C300.047852,381.430389 299.943420,380.114777 299.439209,378.976227 
	C293.821625,366.290985 288.054108,353.671631 282.503448,340.957428 
	C276.564606,327.353912 270.814423,313.667999 264.981903,300.018066 
	C263.817657,295.901306 264.565338,292.527588 268.809967,290.666473 
	C273.402405,288.652832 276.295593,290.917419 278.810394,294.902405 
z"/>
<path fill="#000000" opacity="1.000000" stroke="none" 
	d="
M365.000000,123.531342 
	C364.006683,121.421608 362.588318,118.923103 362.086334,116.252365 
	C357.527924,91.999252 348.028931,69.826797 333.379181,50.063591 
	C320.039795,32.068073 303.186981,18.097122 282.481293,9.076683 
	C282.246857,8.974550 282.108215,8.652459 281.562744,7.999709 
	C309.304352,7.999709 336.683502,7.999709 364.531342,7.999854 
	C365.000000,46.354229 365.000000,84.708458 365.000000,123.531342 
z"/>
<path fill="#EAEEEF" opacity="1.000000" stroke="none" 
	d="
M1.000000,62.375000 
	C5.565109,60.569504 10.176078,59.268234 14.681417,57.669323 
	C18.577726,56.286552 22.354065,54.565739 26.887566,53.047050 
	C31.714668,55.779999 35.769974,58.572067 39.974987,61.116745 
	C48.214375,66.102837 56.537205,70.951042 64.825500,75.856316 
	C56.720062,79.184601 48.711899,82.798813 40.432453,85.615631 
	C38.636032,86.226799 35.735516,84.211571 33.566795,83.004799 
	C22.917910,77.079285 12.344361,71.018387 1.372102,65.002655 
	C1.000000,64.250000 1.000000,63.500000 1.000000,62.375000 
z"/>
<path fill="#000000" opacity="1.000000" stroke="none" 
	d="
M1.000000,384.468567 
	C35.920181,384.000000 70.840363,384.000000 105.760536,384.000000 
	C105.764008,384.162231 105.767479,384.324463 105.770950,384.486694 
	C96.852661,385.324066 87.928230,386.101257 79.017303,387.010742 
	C57.282200,389.229095 35.596657,391.863831 14.818825,399.037262 
	C10.201800,400.631256 6.063861,403.612915 1.352673,405.977844 
	C1.000000,398.979034 1.000000,391.958099 1.000000,384.468567 
z"/>
<path fill="#000000" opacity="1.000000" stroke="none" 
	d="
M322.276154,392.100098 
	C320.738861,389.623108 319.629089,387.099548 318.266022,384.000000 
	C333.918671,384.000000 348.990662,384.000000 364.531342,384.000000 
	C365.000000,391.020966 365.000000,398.041901 365.000000,405.531433 
	C352.129944,397.624786 337.559906,394.405182 322.276154,392.100098 
z"/>
<path fill="#000000" opacity="1.000000" stroke="none" 
	d="
M0.999997,415.460632 
	C11.131521,419.102386 21.263048,423.204742 30.636124,427.000000 
	C21.813869,427.000000 11.875592,427.000000 1.468657,427.000000 
	C1.000000,423.307098 1.000000,419.614166 0.999997,415.460632 
z"/>
<path fill="#000000" opacity="1.000000" stroke="none" 
	d="
M365.000000,426.539368 
	C354.717133,427.000000 344.434235,427.000000 335.532867,427.000000 
	C344.393463,423.315094 354.338135,419.179382 364.641418,415.021851 
	C365.000000,418.692902 365.000000,422.385834 365.000000,426.539368 
z"/>
<path fill="#E74C3C" opacity="1.000000" stroke="none" 
	d="
M114.877464,255.072723 
	C102.741333,240.432617 94.421135,223.677338 89.198975,205.582336 
	C85.877083,194.071838 83.678406,182.130005 82.190956,170.229752 
	C80.904724,159.939346 80.504364,149.379654 81.193100,139.037598 
	C82.264496,122.949188 85.158463,107.064362 91.355362,91.486145 
	C100.212288,95.980225 108.688332,100.862816 117.035461,106.122269 
	C107.289261,134.757599 106.803368,163.254288 115.300507,191.787582 
	C119.586983,206.181488 125.834793,219.729858 135.816498,231.413208 
	C135.782150,231.602081 135.723541,231.981522 135.397476,232.042801 
	C134.022308,233.115387 132.886139,234.051575 131.938339,235.150284 
	C126.227417,241.770416 120.559669,248.427811 114.877464,255.072723 
z"/>
<path fill="#6C3C1C" opacity="1.000000" stroke="none" 
	d="
M146.787537,381.987244 
	C143.567993,388.664093 140.291687,395.314362 137.149139,402.027222 
	C135.109604,406.383850 133.417297,410.906708 131.293854,415.219391 
	C128.790726,420.303284 126.131516,421.095032 121.253746,418.646088 
	C116.684959,416.352264 115.918304,413.856720 118.098015,408.832184 
	C121.727959,400.464722 125.301773,392.072937 128.893677,383.315582 
	C134.712326,370.032684 140.625641,357.164856 146.337997,344.208435 
	C153.310349,328.394196 160.113907,312.505493 167.058502,296.276917 
	C171.927094,297.105469 176.727692,298.306091 181.735840,300.151306 
	C172.838181,321.464355 163.693710,342.115662 154.651291,362.811523 
	C151.886032,369.140503 149.400940,375.591919 146.787537,381.987244 
z"/>
<path fill="#384A5F" opacity="1.000000" stroke="none" 
	d="
M117.164368,105.745407 
	C108.688332,100.862816 100.212288,95.980225 91.380020,91.105911 
	C82.507812,86.128769 73.991829,81.143333 65.150665,76.007111 
	C56.537205,70.951042 48.214375,66.102837 39.974987,61.116745 
	C35.769974,58.572067 31.714668,55.779999 27.266010,52.973717 
	C28.050814,50.917870 29.161303,48.988056 30.988590,47.095955 
	C33.649128,48.033989 35.657875,48.817192 37.525887,49.853962 
	C48.349171,55.861023 59.139294,61.927826 69.940636,67.974419 
	C78.038231,72.546356 86.135834,77.118294 94.541031,81.832611 
	C103.212303,86.988152 111.575958,92.001312 120.490768,97.373116 
	C128.989334,102.201866 136.936737,106.671974 145.099701,111.404037 
	C153.465454,116.286438 161.615616,120.906891 170.005646,125.741623 
	C177.734558,130.179565 185.223587,134.403229 192.952881,138.844345 
	C197.709305,141.709229 202.345322,144.178970 206.677155,147.099792 
	C208.207764,148.131851 209.953278,150.329666 209.849304,151.877609 
	C209.748413,153.380081 207.401016,154.731674 205.720016,156.033264 
	C203.764404,155.229599 202.128937,154.542175 200.265335,153.573181 
	C196.401703,151.216843 192.766220,149.142105 188.897141,146.805908 
	C181.224747,142.375290 173.785919,138.206116 166.111313,133.765350 
	C157.765091,128.903290 149.654648,124.312843 141.292419,119.472092 
	C133.081879,114.729675 125.123123,110.237541 117.164368,105.745407 
z"/>
<path fill="#CB4537" opacity="1.000000" stroke="none" 
	d="
M115.020203,255.377930 
	C120.559669,248.427811 126.227417,241.770416 131.938339,235.150284 
	C132.886139,234.051575 134.022308,233.115387 135.650391,232.273621 
	C137.471497,234.028870 138.713608,235.614548 139.955719,237.200241 
	C133.477081,245.045273 126.998444,252.890320 120.210068,260.883850 
	C118.321198,259.249298 116.742065,257.466217 115.020203,255.377930 
z"/>
<path fill="#EBEEEF" opacity="1.000000" stroke="none" 
	d="
M144.884140,111.142075 
	C136.936737,106.671974 128.989334,102.201866 120.820328,97.459938 
	C129.918869,75.855270 143.816544,58.339516 164.066986,46.488014 
	C199.336060,25.846920 242.391541,33.139500 270.613678,64.657623 
	C295.560272,92.517715 304.933502,125.693550 302.308533,162.516647 
	C300.322693,190.373337 290.950409,215.500351 272.337494,236.594849 
	C253.085983,258.413086 229.114792,270.185486 199.495514,267.969971 
	C175.891235,266.204407 156.827026,255.112579 141.050903,237.288132 
	C143.251144,233.788818 145.258850,230.764496 147.643402,228.074173 
	C151.612427,223.596146 155.823105,219.332321 160.222656,215.150894 
	C188.087540,242.441360 224.849350,242.734497 251.058151,216.045502 
	C284.954498,181.528091 284.021515,118.754700 249.115356,85.328888 
	C224.137634,61.410492 187.364380,61.199184 163.054642,85.747665 
	C155.823624,93.049698 150.877304,102.614227 144.884140,111.142075 
z"/>
<path fill="#000000" opacity="1.000000" stroke="none" 
	d="
M147.276001,381.991150 
	C149.400940,375.591919 151.886032,369.140503 154.651291,362.811523 
	C163.693710,342.115662 172.838181,321.464355 181.974762,300.434448 
	C194.012955,301.004578 206.019760,301.936218 218.488831,302.814301 
	C221.663116,302.848053 224.375168,302.935333 227.536621,303.063782 
	C229.656555,313.825989 231.378372,324.539368 232.984161,335.270142 
	C234.859207,347.799988 236.622604,360.346497 238.458054,372.882324 
	C238.909760,375.967529 239.453079,379.039307 239.918365,382.526733 
	C209.176453,382.622467 178.470459,382.308746 147.276001,381.991150 
z"/>
<path fill="#CED0D1" opacity="1.000000" stroke="none" 
	d="
M159.932022,214.978302 
	C155.823105,219.332321 151.612427,223.596146 147.643402,228.074173 
	C145.258850,230.764496 143.251144,233.788818 140.907196,236.990753 
	C140.740311,237.318497 140.347198,237.264557 140.151459,237.232391 
	C138.713608,235.614548 137.471497,234.028870 135.976471,232.212341 
	C135.723541,231.981522 135.782150,231.602081 135.963165,231.086700 
	C137.212494,229.100525 138.224030,227.584244 139.358978,226.166794 
	C144.223648,220.091202 149.124619,214.044708 154.219223,208.052338 
	C154.426071,208.117081 154.843750,208.232971 154.940521,208.544907 
	C156.646133,210.616165 158.254974,212.375488 159.886322,214.345245 
	C159.908844,214.555679 159.932022,214.978302 159.932022,214.978302 
z"/>
<path fill="#000000" opacity="1.000000" stroke="none" 
	d="
M259.401611,384.379639 
	C272.162354,384.070312 285.216827,384.113953 298.268585,383.945526 
	C301.453278,383.904419 302.804138,385.227966 303.009674,388.587036 
	C294.841797,387.991882 286.670685,386.879333 278.471680,386.038361 
	C272.230927,385.398315 265.954773,385.103180 259.401611,384.379639 
z"/>
<path fill="#000000" opacity="1.000000" stroke="none" 
	d="
M264.570160,300.011353 
	C270.814423,313.667999 276.564606,327.353912 282.503448,340.957428 
	C288.054108,353.671631 293.821625,366.290985 299.439209,378.976227 
	C299.943420,380.114777 300.047852,381.430389 300.366364,382.784729 
	C285.282928,382.784729 270.523926,382.784729 255.202606,382.784729 
	C253.456726,370.989990 251.750961,359.316162 249.996231,347.649658 
	C247.796906,333.027191 245.557404,318.410736 243.178345,303.429230 
	C250.067108,302.046051 257.112762,301.025360 264.570160,300.011353 
z"/>
<path fill="#EAEEEF" opacity="1.000000" stroke="none" 
	d="
M69.956284,67.561600 
	C59.139294,61.927826 48.349171,55.861023 37.525887,49.853962 
	C35.657875,48.817192 33.649128,48.033989 31.347946,47.060532 
	C29.993036,41.273323 28.969028,35.563713 28.007471,29.843603 
	C27.370913,26.056843 26.823906,22.255030 26.025238,17.092358 
	C30.738144,21.558073 37.944828,21.102716 39.502266,28.549576 
	C39.799076,27.742870 40.073734,26.996376 40.739479,25.186935 
	C44.671818,28.293814 48.170742,31.487030 52.101894,34.005604 
	C54.512943,35.550293 57.692223,35.838058 60.335342,37.092930 
	C63.669735,38.676006 66.097420,40.397453 66.278969,45.242073 
	C66.553963,52.580139 68.649750,59.849968 69.956284,67.561600 
z"/>
<path fill="#EBEDEE" opacity="1.000000" stroke="none" 
	d="
M154.012375,207.987610 
	C149.124619,214.044708 144.223648,220.091202 139.358978,226.166794 
	C138.224030,227.584244 137.212494,229.100525 135.997498,230.897842 
	C125.834793,219.729858 119.586983,206.181488 115.300507,191.787582 
	C106.803368,163.254288 107.289261,134.757599 117.035461,106.122276 
	C125.123123,110.237541 133.081879,114.729675 141.131897,119.869949 
	C137.511688,132.526215 135.799515,144.763901 136.519516,157.363693 
	C137.579636,175.915298 143.510010,192.727219 154.012375,207.987610 
z"/>
<path fill="#E74C3D" opacity="1.000000" stroke="none" 
	d="
M160.222656,215.150894 
	C159.932022,214.978302 159.908844,214.555679 160.046387,214.032257 
	C161.366959,211.928665 162.539383,210.340393 163.734940,208.769745 
	C168.501328,202.507889 173.274918,196.251526 178.260742,190.016235 
	C178.475616,190.039337 178.905716,190.082458 179.038513,190.392639 
	C195.418198,206.778381 217.890854,206.517548 233.740494,190.069412 
	C254.019119,169.025040 252.946762,130.737244 231.524475,110.947868 
	C217.763535,98.235855 198.113602,96.932045 183.659927,108.787323 
	C178.155151,113.302498 174.347122,119.886314 169.765778,125.527344 
	C161.615616,120.906891 153.465454,116.286438 145.099701,111.404037 
	C150.877304,102.614227 155.823624,93.049698 163.054642,85.747665 
	C187.364380,61.199184 224.137634,61.410492 249.115356,85.328888 
	C284.021515,118.754700 284.954498,181.528091 251.058151,216.045502 
	C224.849350,242.734497 188.087540,242.441360 160.222656,215.150894 
z"/>
<path fill="#EBEDEE" opacity="1.000000" stroke="none" 
	d="
M170.005646,125.741623 
	C174.347122,119.886314 178.155151,113.302498 183.659927,108.787323 
	C198.113602,96.932045 217.763535,98.235855 231.524475,110.947868 
	C252.946762,130.737244 254.019119,169.025040 233.740494,190.069412 
	C217.890854,206.517548 195.418198,206.778381 179.310486,190.190369 
	C183.122055,185.201874 186.700592,180.643906 190.504944,176.282913 
	C192.529877,173.961685 194.945618,171.981354 197.533508,169.959473 
	C207.385971,174.845856 216.148178,172.102676 220.826050,162.593918 
	C224.593872,154.934998 224.488068,147.102936 220.287460,139.639191 
	C213.817123,128.142548 200.235458,127.717384 192.712631,138.626892 
	C185.223587,134.403229 177.734558,130.179565 170.005646,125.741623 
z"/>
<path fill="#E74C3D" opacity="1.000000" stroke="none" 
	d="
M154.219223,208.052338 
	C143.510010,192.727219 137.579636,175.915298 136.519516,157.363693 
	C135.799515,144.763901 137.511688,132.526215 141.383667,120.120239 
	C149.654648,124.312843 157.765091,128.903290 166.019226,134.174347 
	C165.942505,135.821228 165.702545,136.783539 165.504562,137.754395 
	C162.128830,154.309052 163.887863,169.934494 173.907791,184.298920 
	C173.915665,184.535049 173.919083,185.007553 173.628525,185.168945 
	C171.631470,187.313843 169.862625,189.247543 168.230392,191.290405 
	C163.737579,196.913467 159.301987,202.582275 154.843750,208.232971 
	C154.843750,208.232971 154.426071,208.117081 154.219223,208.052338 
z"/>
<path fill="#EAEDEE" opacity="1.000000" stroke="none" 
	d="
M173.899918,184.062805 
	C163.887863,169.934494 162.128830,154.309052 165.504562,137.754395 
	C165.702545,136.783539 165.942505,135.821228 166.255005,134.445953 
	C173.785919,138.206116 181.224747,142.375290 188.842590,147.255234 
	C189.972778,153.026581 190.923965,158.087173 191.893921,163.450867 
	C192.022339,164.143738 192.131973,164.533508 191.875671,164.955032 
	C189.699875,166.605850 187.721313,168.074112 186.113022,169.873352 
	C181.954819,174.525253 177.959991,179.323196 173.899918,184.062805 
z"/>
<path fill="#E64D3D" opacity="1.000000" stroke="none" 
	d="
M192.952881,138.844345 
	C200.235458,127.717384 213.817123,128.142548 220.287460,139.639191 
	C224.488068,147.102936 224.593872,154.934998 220.826050,162.593918 
	C216.148178,172.102676 207.385971,174.845856 197.481735,169.745453 
	C197.081436,169.419128 196.956879,168.995865 197.118286,168.700607 
	C200.199844,164.320068 203.120010,160.234802 206.040161,156.149521 
	C207.401016,154.731674 209.748413,153.380081 209.849304,151.877609 
	C209.953278,150.329666 208.207764,148.131851 206.677155,147.099792 
	C202.345322,144.178970 197.709305,141.709229 192.952881,138.844345 
z"/>
<path fill="#CA4538" opacity="1.000000" stroke="none" 
	d="
M205.720016,156.033264 
	C203.120010,160.234802 200.199844,164.320068 196.814133,168.609207 
	C194.979584,167.516464 193.610596,166.219864 192.241608,164.923279 
	C192.131973,164.533508 192.022339,164.143738 192.062164,163.147064 
	C194.972244,159.645035 197.732849,156.749893 200.493469,153.854736 
	C202.128937,154.542175 203.764404,155.229599 205.720016,156.033264 
z"/>
<path fill="#E54D3E" opacity="1.000000" stroke="none" 
	d="
M200.265320,153.573166 
	C197.732849,156.749893 194.972244,159.645035 192.043381,162.843964 
	C190.923965,158.087173 189.972778,153.026581 189.076172,147.516678 
	C192.766220,149.142105 196.401703,151.216843 200.265320,153.573166 
z"/>
<path fill="#CB4538" opacity="1.000000" stroke="none" 
	d="
M154.940521,208.544907 
	C159.301987,202.582275 163.737579,196.913467 168.230392,191.290405 
	C169.862625,189.247543 171.631470,187.313843 173.897064,185.351791 
	C175.652725,186.913208 176.849289,188.453171 178.045837,189.993118 
	C173.274918,196.251526 168.501328,202.507889 163.734940,208.769745 
	C162.539383,210.340393 161.366959,211.928665 160.023865,213.821838 
	C158.254974,212.375488 156.646133,210.616165 154.940521,208.544907 
z"/>
<path fill="#CED0D1" opacity="1.000000" stroke="none" 
	d="
M178.260727,190.016235 
	C176.849289,188.453171 175.652725,186.913208 174.187622,185.190399 
	C173.919083,185.007553 173.915665,184.535049 173.907791,184.298920 
	C177.959991,179.323196 181.954819,174.525253 186.113022,169.873352 
	C187.721313,168.074112 189.699875,166.605850 191.875671,164.955032 
	C193.610596,166.219864 194.979584,167.516464 196.652725,168.904465 
	C196.956879,168.995865 197.081436,169.419128 197.133209,169.633148 
	C194.945618,171.981354 192.529877,173.961685 190.504944,176.282913 
	C186.700592,180.643906 183.122055,185.201874 179.177673,189.880203 
	C178.905716,190.082458 178.475616,190.039337 178.260727,190.016235 
z"/>
</svg>