<?xml version="1.0" encoding="UTF-8"?>
<svg id="Layer_1" data-name="Layer 1" xmlns="http://www.w3.org/2000/svg" viewBox="0 0 505.83 510.17">
  <defs>
    <style>
      .cls-1 {
        fill: #fff;
      }

      .cls-1, .cls-2, .cls-3 {
        fill-rule: evenodd;
      }

      .cls-4, .cls-3 {
        fill: #0cb9aa;
      }

      .cls-2 {
        fill: #231f20;
      }
    </style>
  </defs>
  <path class="cls-2" d="m263.28,3.28l239,243c4.89,4.89,4.58,13.94,0,19s-239,241-239,241c-3.95,4.26-13.82,5.61-19,1-5.17-4.61-242-240-242-240-3.01-3.85-3.07-12.53,0-16C5.35,247.81,246.28,3.28,246.28,3.28c3.64-3.95,13.26-4.78,17,0Z"/>
  <path class="cls-1" d="m268.28,21.28l223,229c2.91,2.81,2.66,8.08,0,11s-232,232-232,232c-2.81,3.01-8.09,3.12-12,0S15.28,264.28,15.28,264.28c-2.81-2.91-3.92-8-1-11,2.92-3,229-233,229-233,7.28-7.8,13.88-10.54,25,1Z"/>
  <path class="cls-3" d="m369.28,242.2s-77.91-74.55-88-84c-10.09-9.45-13.13-10.87-25,1,0,0-48.72,47.68-55,56-6.28,8.32,7.98,21.46,17,13,0,0,34.39-33.73,43-42s7.98-8.46,17,0l49,47-152,1s37.35-35.21,44-43c6.65-7.79-9.67-22.77-17-16l-71,69c-5.74,6.73-10.1,13.31-1,23,0,0,100.26,93.54,111,104,10.74,10.46,12.13,10.09,24,0,0,0,85.74-81.88,102-96,16.26-14.12,16.05-18.56,2-33Zm-116,111l-82-79,163,1-81,78Z"/>
  <path class="cls-4" d="m229.39,104.88c5.74,4.85,6.22,3.93,10.57-.27s21.59-21.18,29.32-28.64c7.73-7.46,25.24,9.39,17.12,17.22,0,0-31.6,30.84-41.03,39.95s-9.55,9.22-19.1,0c0,0-17.15-16.72-22.35-21.73s10.83-20.66,15.55-16.32,9.91,9.79,9.91,9.79Z"/>
</svg>